HIERARCHY
ROOT Hips
{
	OFFSET -3.958830 18.904000 13.208200
	CHANNELS 6 Xposition Yposition Zposition Zrotation Yrotation Xrotation 
	JOINT LHipJoint
	{
		OFFSET 0.000000 0.000000 0.000000
		CHANNELS 3 Zrotation Yrotation Xrotation
		JOINT LeftUpLeg
		{
			OFFSET 1.800000 -1.400000 0.085000
			CHANNELS 3 Zrotation Yrotation Xrotation
			JOINT LeftLeg
			{
				OFFSET 2.215000 -6.000000 0.000000
				CHANNELS 3 Zrotation Yrotation Xrotation
				JOINT LeftFoot
				{
					OFFSET 2.500000 -6.900000 0.000000
					CHANNELS 3 Zrotation Yrotation Xrotation
					JOINT LeftToeBase
					{
						OFFSET 0.200000 -0.500000 1.950000
						CHANNELS 3 Zrotation Yrotation Xrotation
						End Site
						{
							OFFSET 0.000000 0.000000 0.000000
						}
					}
				}
			}
		}
	}
	JOINT RHipJoint
	{
		OFFSET 0.000000 0.000000 0.000000
		CHANNELS 3 Zrotation Yrotation Xrotation
		JOINT RightUpLeg
		{
			OFFSET -1.800000 -1.400000 0.085000
			CHANNELS 3 Zrotation Yrotation Xrotation
			JOINT RightLeg
			{
				OFFSET -2.215000 -6.000000 0.000000
				CHANNELS 3 Zrotation Yrotation Xrotation
				JOINT RightFoot
				{
					OFFSET -2.500000 -6.900000 0.000000
					CHANNELS 3 Zrotation Yrotation Xrotation
					JOINT RightToeBase
					{
						OFFSET -0.200000 -0.500000 1.950000
						CHANNELS 3 Zrotation Yrotation Xrotation
						End Site
						{
							OFFSET 0.000000 0.000000 0.000000
						}
					}
				}
			}
		}
	}
	JOINT LowerBack
	{
		OFFSET 0.000000 0.000000 0.000000
		CHANNELS 3 Zrotation Yrotation Xrotation
		JOINT Spine
		{
			OFFSET -0.087000 1.940000 -0.288900
			CHANNELS 3 Zrotation Yrotation Xrotation
			JOINT Spine1
			{
				OFFSET 0.000000 1.950000 0.060000
				CHANNELS 3 Zrotation Yrotation Xrotation
				JOINT Neck
				{
					OFFSET 0.000000 0.000000 0.000000
					CHANNELS 3 Zrotation Yrotation Xrotation
					JOINT Neck1
					{
						OFFSET 0.000000 1.600000 0.340000
						CHANNELS 3 Zrotation Yrotation Xrotation
						JOINT Head
						{
							OFFSET 0.000000 1.667000 -0.240000
							CHANNELS 3 Zrotation Yrotation Xrotation
							End Site
							{
								OFFSET 0.000000 0.000000 0.000000
							}
						}
					}
				}
				JOINT LeftShoulder
				{
					OFFSET 0.000000 0.000000 0.000000
					CHANNELS 3 Zrotation Yrotation Xrotation
					JOINT LeftArm
					{
						OFFSET 2.700000 1.550000 -0.730000
						CHANNELS 3 Zrotation Yrotation Xrotation
						JOINT LeftForeArm
						{
							OFFSET 5.450000 0.000000 0.000000
							CHANNELS 3 Zrotation Yrotation Xrotation
							JOINT LeftHand
							{
								OFFSET 3.450000 0.000000 0.000000
								CHANNELS 3 Zrotation Yrotation Xrotation
								JOINT LeftHandIndex1
								{
									OFFSET 0.750000 0.000000 0.000000
									CHANNELS 3 Zrotation Yrotation Xrotation
									End Site
									{
										OFFSET 0.000000 0.000000 0.000000
									}
								}
							}
						}
					}
				}
				JOINT RightShoulder
				{
					OFFSET 0.000000 0.000000 0.000000
					CHANNELS 3 Zrotation Yrotation Xrotation
					JOINT RightArm
					{
						OFFSET -2.700000 1.550000 -0.730000
						CHANNELS 3 Zrotation Yrotation Xrotation
						JOINT RightForeArm
						{
							OFFSET -5.450000 0.000000 0.000000
							CHANNELS 3 Zrotation Yrotation Xrotation
							JOINT RightHand
							{
								OFFSET -3.450000 0.000000 0.000000
								CHANNELS 3 Zrotation Yrotation Xrotation
								JOINT RightHandIndex1
								{
									OFFSET -0.750000 0.000000 0.000000
									CHANNELS 3 Zrotation Yrotation Xrotation
									End Site
									{
										OFFSET 0.000000 0.000000 0.000000
									}
								}
							}
						}
					}
				}
			}
		}
	}
}
MOTION
Frames: 13
Frame Time: 0.016667
0.150760 18.014930 -1.469000 -9.704530 24.883355 4.346479 -14.846739 11.907678 1.975676 9.108137 -1.525455 -13.430336 -5.041678 4.679438 9.251766 -0.993937 4.022576 3.477177 -0.015810 -0.349870 -0.159130 18.831752 -10.076434 4.560851 -9.176142 10.181145 -41.919877 19.287232 -13.673216 38.016498 -0.540430 -7.074195 1.961971 0.088740 0.823860 0.100290 -5.237691 0.791966 -7.627684 22.233186 -4.560857 6.852241 -12.719696 -2.222002 10.690470 4.463576 1.168308 -7.890198 2.161088 -10.150159 24.060334 -2.882740 -11.411230 -5.639520 -10.492300 -1.788584 1.889790 -36.178783 0.786937 -3.813400 -8.635571 -13.973637 -0.650798 -4.274105 2.589054 0.332840 0.460980 -0.495200 0.176850 1.200717 0.240367 6.112775 36.436176 3.126438 -5.148569 119.787781 68.331078 83.995734 2.062198 -0.756338 -0.563080 0.594940 0.382190 -0.113960 
0.108700 17.941800 -1.456040 -8.942442 24.832301 5.713264 -14.883577 12.001556 2.061684 8.475982 -1.690734 -14.134340 -5.049062 4.634977 9.582067 -1.024487 4.027473 3.495725 0.057260 -0.233970 -0.190220 18.767543 -10.263003 4.270582 -8.679580 8.561493 -41.049193 16.886366 -10.214083 29.949048 -0.139055 -5.464028 2.497691 0.203300 0.907430 0.131220 -5.092046 0.816397 -7.340418 20.499551 -3.990499 4.580547 -11.325179 -2.484246 11.066138 4.128486 1.175444 -7.261889 2.542080 -10.285170 21.892414 -3.620750 -11.512900 -3.665750 -9.921449 -0.800582 1.487591 -34.539485 -0.006370 -3.023530 -9.670867 -14.181855 -0.459570 -4.349857 2.717593 0.200600 0.560120 -0.572280 0.244720 1.527296 -0.810080 5.258505 35.250102 4.088680 -4.287303 123.986916 69.318634 91.839805 1.849746 -0.856695 -0.543830 0.588130 0.350400 -0.067060 
0.051310 17.832190 -1.444030 -8.610034 24.803573 7.585047 -14.921032 12.026520 2.112106 8.539271 -1.925001 -15.329272 -5.000549 4.595282 9.996598 -1.041510 4.109886 3.503708 0.133430 -0.084910 -0.275160 18.711576 -10.398181 4.004422 -7.273659 7.160898 -39.643718 13.542261 -5.615075 16.406023 0.309581 -3.452213 3.224186 0.366030 1.091970 0.209790 -4.930483 0.946163 -7.033732 19.130679 -3.322271 1.556189 -9.831572 -2.798664 11.203818 3.787727 1.282360 -6.457755 3.418401 -10.369893 18.426185 -4.471120 -11.676430 -0.489230 -9.175136 0.599350 0.801462 -32.249698 -1.454961 -1.675706 -10.967097 -13.784484 -0.251092 -4.541356 2.923997 -0.056320 0.757310 -0.718580 0.342970 1.750088 -2.359219 4.244128 34.368988 5.321903 -2.976679 131.599901 71.189259 105.845577 1.488215 -1.202954 -0.501160 0.578160 0.335120 0.032300 
-0.004120 17.695860 -1.447280 -8.128583 24.078317 9.473903 -14.976978 11.916599 2.058240 8.146768 -2.112075 -15.745307 -4.611755 4.320018 9.339474 -1.240055 4.264072 3.515201 0.210000 0.024210 -0.271670 18.694819 -10.212106 4.000645 -6.877331 6.727081 -38.438764 10.215923 -2.218027 3.090759 0.523509 -2.669522 3.526502 0.588440 1.303950 0.265140 -4.732052 0.912511 -6.911915 17.344669 -2.487639 -0.997138 -7.850913 -2.754114 11.460565 3.568372 1.521979 -5.684506 4.396640 -10.579578 15.605629 -7.153580 -11.200280 1.644490 -7.986482 2.067087 0.017252 -30.473407 -2.999059 -0.168392 -12.850974 -14.110891 -0.025165 -4.817318 3.010571 -0.253460 1.004000 -0.900230 0.390480 1.358954 -4.075351 3.143288 33.377005 6.799968 -1.183316 139.553735 73.556722 120.101679 1.101342 -1.643533 -0.576220 0.658000 0.361190 0.040510 
-0.060180 17.553260 -1.467480 -7.837677 22.954345 10.520175 -14.999489 11.776325 1.950631 7.640352 -2.166137 -15.586727 -4.121321 4.122247 8.794796 -1.375560 4.400588 3.547866 0.148050 -0.024030 -0.339350 18.718533 -9.946806 4.182392 -7.545761 6.899054 -37.953987 8.292074 -0.586416 -5.441286 0.592298 -2.813839 3.526343 0.678810 1.520510 0.257910 -4.659430 0.875690 -6.953704 16.230427 -1.898743 -1.979482 -6.613765 -2.512817 11.332194 3.304029 1.611815 -5.348632 4.785369 -9.958033 14.412853 -8.114380 -10.742250 3.230250 -6.719390 3.130925 -0.386160 -29.174696 -3.599265 0.593075 -13.418224 -16.577615 0.425500 -5.028317 2.989933 -0.377590 1.194700 -1.068410 0.394540 0.781700 -5.104033 2.573919 32.964408 8.569165 0.370491 150.376914 76.688744 137.242760 0.882404 -2.026381 -0.693030 0.779840 0.445130 0.046040 
-0.125590 17.422600 -1.473970 -6.730035 22.018515 10.829426 -15.042357 11.834430 1.911862 6.791219 -2.105015 -14.970012 -3.802308 4.150394 9.248179 -1.419139 4.480661 3.541897 0.102780 -0.069720 -0.343850 18.684712 -9.849814 4.218765 -9.127171 6.498452 -38.153977 8.100220 -0.488695 -6.369336 0.619532 -2.953589 3.482702 0.692460 1.570450 0.252810 -4.527761 0.666152 -6.910723 13.769765 -1.406750 -2.052396 -5.342508 -2.283563 10.953414 3.237054 2.140029 -5.091234 5.508689 -9.469487 14.505237 -9.099640 -9.665110 4.228240 -6.904236 3.285813 -0.629599 -26.089495 -4.119359 1.310094 -14.237713 -19.500531 1.195896 -5.095015 3.013364 -0.418400 1.271040 -1.125070 0.368320 1.205259 -5.498468 2.157334 32.370198 10.162175 1.700701 160.559438 79.383965 151.594725 0.842297 -2.282043 -0.741410 0.796980 0.476970 0.019000 
-0.195250 17.306920 -1.481010 -5.836984 22.279318 10.445058 -15.089621 12.110669 2.009803 6.300606 -2.094255 -14.882473 -3.286124 4.148382 10.000649 -1.419981 4.464704 3.531137 0.115610 -0.083600 -0.307630 18.605247 -10.057578 3.962693 -9.400750 5.824728 -39.462420 7.015188 -1.751727 1.578704 0.653096 -2.713707 3.525861 0.659410 1.520050 0.266530 -4.382717 0.354210 -6.750038 11.738695 -1.349121 -1.462032 -3.685393 -2.368299 10.549932 2.693205 2.389464 -4.909742 5.676059 -9.767243 15.133038 -9.056140 -9.834530 3.722230 -7.831342 2.918435 -0.598140 -23.640509 -3.774214 1.309087 -14.470517 -25.176297 2.302732 -4.993649 3.087741 -0.351880 1.219400 -1.072290 0.359610 3.216774 -5.183858 1.755801 30.847063 10.518124 2.025155 171.159481 80.635756 164.443188 0.922104 -2.413755 -0.728510 0.780440 0.468890 0.003070 
-0.263740 17.250460 -1.476530 -4.968101 22.983293 9.423961 -15.134536 12.403382 2.093497 5.906982 -2.037658 -15.078035 -2.848918 4.361804 11.817532 -1.300675 4.426644 3.515772 0.054680 -0.187820 -0.335500 18.517337 -10.313614 3.721766 -9.534301 5.323484 -40.043652 6.402251 -3.524709 12.418841 0.609850 -2.972080 3.415725 0.515200 1.431750 0.261290 -4.247212 0.057974 -6.634043 9.594602 -1.106692 -0.155451 -1.926133 -2.197446 9.787875 2.228383 2.932667 -4.905091 6.115177 -10.199334 16.615616 -8.228550 -10.112930 4.287980 -9.544581 1.652413 0.006357 -21.818971 -2.488664 0.636799 -14.392046 -33.326815 3.761190 -4.810757 3.227562 -0.278080 1.115370 -1.012430 0.342600 5.842519 -3.997290 1.252229 29.578592 8.825190 -1.060468 148.564184 80.557187 140.257123 0.951992 -1.775654 -0.681380 0.697170 0.465500 0.004210 
-0.345740 17.244340 -1.480540 -3.912528 23.924443 8.020021 -15.233782 12.734715 2.143066 4.297904 -2.305541 -17.741017 0.007969 4.452823 18.162554 -1.147311 4.391066 3.410517 0.067990 -0.204750 -0.243110 18.383154 -10.449509 3.610944 -9.643793 5.232180 -39.820255 6.084038 -5.704743 24.344426 0.356494 -3.992910 2.998426 0.368630 1.187230 0.266380 -3.965955 -0.448752 -6.604544 6.867218 -1.037428 2.396705 -0.220857 -2.048532 8.753937 2.272309 3.861069 -5.142198 7.006417 -11.120624 19.033988 -7.788730 -10.068960 2.897850 -10.086649 1.250843 0.435225 -23.771997 -1.987640 -0.640589 -12.435274 -41.431160 4.342223 -4.558109 3.283777 -0.121940 0.913660 -0.818580 0.291930 6.288240 -3.865069 0.946657 32.113193 8.583763 -2.317900 104.925354 80.976746 88.662904 2.236692 3.556687 -0.569860 0.571930 0.403440 -0.029650 
-0.435990 17.247760 -1.498620 -3.462944 23.778028 7.144337 -15.288860 12.617724 2.474441 2.548582 -3.694408 -24.085404 3.861349 4.491414 28.743356 -1.001108 5.238828 3.012199 0.036440 -0.250560 -0.211970 18.355548 -10.397939 3.589671 -8.164041 5.941940 -39.307669 5.155756 -7.483321 34.576172 0.093127 -5.343971 2.542180 0.301620 1.093680 0.217880 -3.843316 -0.589254 -6.860775 5.521180 -0.256031 4.651210 1.071402 -1.056699 9.164390 1.941044 4.195287 -6.304460 7.340613 -11.598232 19.940320 -7.665020 -9.737240 1.767760 -10.244803 1.024527 -0.197705 -27.353264 -3.963835 -1.623764 -10.201942 -48.037477 4.245754 -4.433478 3.192861 -0.008390 0.826960 -0.747060 0.251530 7.020087 -3.704082 3.883772 34.685216 8.381008 4.647722 68.000329 88.771552 51.720073 2.271417 -0.893348 -0.584970 0.581050 0.404600 -0.076550 
-0.513340 17.257960 -1.540430 -3.871503 21.712034 5.568882 -15.281533 12.054536 3.133918 2.339977 -5.705002 -30.906956 5.814209 5.326578 41.226465 -0.552629 7.051262 2.260680 0.039500 -0.239080 -0.184880 18.440303 -10.232375 3.540114 -5.507960 7.083159 -38.037920 3.822703 -8.654123 42.984345 -0.258776 -6.521098 2.153649 0.213410 0.921460 0.159830 -3.921850 -0.234838 -7.431254 6.983400 0.881835 8.531118 0.447342 0.765338 8.144401 1.690254 3.551307 -6.926749 6.069816 -11.755146 21.943542 -5.678940 -10.211330 -0.486660 -9.105944 0.421885 0.220721 -32.625286 -5.799283 -2.797221 -9.365138 -54.874509 4.155070 -4.184773 3.199348 0.122280 0.644240 -0.612370 0.224570 6.031867 -1.844661 4.396539 39.411380 6.304410 -1.151879 55.081204 79.736555 35.790212 1.827851 -1.900743 -0.531230 0.540360 0.361930 -0.088010 
-0.588070 17.280390 -1.602040 -4.430115 18.459213 3.317386 -15.228183 11.513826 3.879049 3.876772 -7.198538 -36.769077 5.192302 7.190164 50.756361 -0.098933 8.829840 1.593439 0.007540 -0.279990 -0.186200 18.534127 -10.173269 3.399925 -2.494375 7.871445 -34.517391 2.806936 -9.137337 47.798282 -0.539441 -7.160698 1.984678 0.095720 0.792510 0.101820 -4.094507 0.219855 -8.091254 9.684356 1.814949 13.804605 -1.349735 3.042630 6.838181 1.421878 2.523535 -7.727319 3.943802 -11.441135 25.328259 -2.109350 -11.149620 -3.362170 -8.488550 -0.431751 0.822441 -38.194842 -7.092923 -4.259476 -7.987333 -62.618736 3.201322 -3.950547 3.159746 0.277530 0.464670 -0.486200 0.197330 5.447264 0.665359 5.079860 43.884787 5.771252 -5.572618 42.478050 70.849010 22.684353 1.747474 -1.863196 -0.500520 0.535150 0.350290 -0.093750 
-0.639680 17.292960 -1.652110 -4.087460 15.184479 1.317703 -15.194091 11.201650 4.477068 4.909167 -8.026115 -40.757228 3.508726 8.995583 55.488105 0.167110 9.792682 1.218518 0.022610 -0.275610 -0.143740 18.562766 -10.273148 3.176602 -0.671175 7.771832 -29.613060 2.250743 -9.324106 49.958447 -0.741189 -7.453801 1.914580 0.021430 0.642500 0.069580 -4.154996 0.567014 -8.521453 11.288552 2.861481 18.845944 -2.848256 5.589708 5.604284 1.338221 1.514156 -8.632945 1.795229 -11.480709 28.867357 0.803300 -11.814100 -6.608400 -8.539465 -1.164524 1.532280 -44.157973 -7.932873 -5.327281 -9.777015 -71.614432 3.604761 -3.749265 3.182571 0.422240 0.305080 -0.360500 0.166250 5.264238 3.310457 5.888301 47.690039 5.279964 -8.525217 34.185501 62.470116 14.581076 1.776498 -1.670827 -0.460760 0.500330 0.321210 -0.121060 
